<?xml version="1.0" standalone="no"?>
<svg viewBox="0 0 200 200" xmlns="http://www.w3.org/2000/svg">
  <path fill="#FF0066" d="M39.4,-63.1C51.2,-53.8,60.9,-43,67.9,-30.2C75,-17.5,79.4,-2.7,77.4,11.2C75.5,25.1,67.3,38.1,57,48.5C46.6,58.9,34.2,66.6,20.3,72C6.4,77.4,-9.1,80.5,-24.9,78.7C-40.8,76.9,-57,70.2,-64.8,57.9C-72.6,45.7,-72.1,28,-73.4,11.3C-74.7,-5.5,-77.9,-21.2,-72.1,-32.5C-66.3,-43.8,-51.6,-50.7,-38.1,-59.2C-24.6,-67.8,-12.3,-78,0.8,-79.2C13.8,-80.4,27.7,-72.5,39.4,-63.1Z" transform="translate(100 100)" />
</svg>
